<?xml version="1.0" encoding="UTF-8"?>
<svg width="1024px" height="1024px" viewBox="0 0 1024 1024" version="1.1" xmlns="http://www.w3.org/2000/svg" xmlns:xlink="http://www.w3.org/1999/xlink">
    <title>iOS App Icon@1.5x</title>
    <defs>
        <radialGradient cx="50%" cy="50%" fx="50%" fy="50%" r="50%" id="radialGradient-1">
            <stop stop-color="#4CBCEC" offset="2.32117052%"></stop>
            <stop stop-color="#109CD8" offset="100%"></stop>
        </radialGradient>
        <radialGradient cx="27.5377653%" cy="27.4856189%" fx="27.5377653%" fy="27.4856189%" r="65.878193%" id="radialGradient-2">
            <stop stop-color="#FFFFFF" stop-opacity="0.1" offset="0%"></stop>
            <stop stop-color="#FFFFFF" stop-opacity="0" offset="100%"></stop>
        </radialGradient>
        <filter x="-6.1%" y="-11.6%" width="112.2%" height="123.3%" filterUnits="objectBoundingBox" id="filter-3">
            <feOffset dx="1" dy="1" in="SourceAlpha" result="shadowOffsetOuter1"></feOffset>
            <feGaussianBlur stdDeviation="13.5" in="shadowOffsetOuter1" result="shadowBlurOuter1"></feGaussianBlur>
            <feColorMatrix values="0 0 0 0 0   0 0 0 0 0   0 0 0 0 0  0 0 0 0.1 0" type="matrix" in="shadowBlurOuter1" result="shadowMatrixOuter1"></feColorMatrix>
            <feMerge>
                <feMergeNode in="shadowMatrixOuter1"></feMergeNode>
                <feMergeNode in="SourceGraphic"></feMergeNode>
            </feMerge>
        </filter>
        <polygon id="path-4" points="0 -0.0021593265 684.223632 -0.0021593265 684.223632 456.306717 0 456.306717"></polygon>
    </defs>
    <g id="Assets" stroke="none" stroke-width="1" fill="none" fill-rule="evenodd">
        <g id="Group">
            <g id="adaptive-icon">
                <g id="background" fill="url(#radialGradient-1)">
                    <rect id="base" x="0" y="0" width="1024" height="1024"></rect>
                </g>
                <g id="foreground" fill="url(#radialGradient-2)">
                    <rect id="finish" x="0" y="0" width="1024" height="1024"></rect>
                </g>
            </g>
            <g transform="translate(9.481481, 265.481481)" id="Logos/Tap-White" filter="url(#filter-3)">
                <g id="Group-4" transform="translate(205.675214, 5.735711)">
                    <mask id="mask-5" fill="white">
                        <use xlink:href="#path-4"></use>
                    </mask>
                    <g id="Clip-2"></g>
                    <path d="M532.389618,152.45169 L582.977655,152.45169 L582.977655,101.637339 L532.389618,101.637339 L532.389618,152.45169 Z M633.608709,152.45169 L684.229009,152.45169 L684.229009,101.637339 L633.608709,101.637339 L633.608709,152.45169 Z M532.389618,254.08579 L582.977655,254.08579 L582.977655,203.266041 L532.389618,203.266041 L532.389618,254.08579 Z M582.977655,203.266041 L633.608709,203.266041 L633.608709,152.45169 L582.977655,152.45169 L582.977655,203.266041 Z M582.977655,101.631941 L633.608709,101.631941 L633.608709,50.8229882 L582.977655,50.8229882 L582.977655,101.631941 Z M532.389618,50.8229882 L582.977655,50.8229882 L582.977655,-0.0021593265 L532.389618,-0.0021593265 L532.389618,50.8229882 Z M95.5193332,322.838746 L94.3256104,323.632298 C83.6143679,330.774271 77.5973597,333.505819 72.76332,333.505819 C67.7518351,333.505819 65.6278688,330.504355 65.6278688,311.448299 L65.6278688,240.633186 L100.713641,240.633186 L100.713641,207.644075 L65.6278688,207.644075 L65.6278688,157.990362 L64.4556545,151.274857 L23.9551131,157.990362 L23.9551131,207.806025 C22.1483975,208.102932 0,211.995118 0,211.995118 L0,240.633186 L23.9551131,240.633186 L23.9551131,339.9784 C23.9551131,364.740477 34.3706135,376.292873 56.8039989,376.292873 C68.2841709,376.292873 80.9903286,372.530247 93.5190409,365.37208 L98.7133483,362.143887 L109.757973,355.374398 L109.284785,354.472879 L95.5193332,322.838746 Z M400.149866,233.075543 C420.421645,233.075543 434.918387,254.53385 434.918387,285.061329 C434.918387,316.70086 416.808214,341.425149 393.643539,341.425149 C386.405922,341.425149 378.049863,339.238831 372.269448,336.339935 C365.026454,332.312791 362.848717,327.977943 362.848717,315.972088 L362.848717,302.875772 L362.848717,259.608268 C373.37176,241.783027 385.663878,233.075543 400.149866,233.075543 L400.149866,233.075543 Z M398.337773,376.676154 C444.339118,376.676154 480.183066,335.600366 480.183066,282.157035 C480.183066,233.442629 450.845446,197.813741 410.280379,197.813741 C399.429331,197.813741 389.642954,200.712637 381.335289,206.175733 C375.527989,210.175886 371.172514,214.526929 362.848717,225.436926 L362.848717,202.53187 L319.385377,202.53187 L319.385377,456.306717 L362.848717,456.306717 L362.848717,364.686494 C371.172514,371.952627 374.807453,373.782656 384.94872,375.591092 C389.282687,376.30367 394.003807,376.676154 398.337773,376.676154 L398.337773,376.676154 Z M228.85602,296.316818 L228.85602,329.419293 C222.699207,334.148218 220.526846,335.600366 217.623196,337.068708 C211.848159,340.318494 205.3257,342.153921 199.889422,342.153921 C189.02762,342.153921 182.510539,335.600366 182.510539,324.679572 C182.510539,320.328529 183.231074,317.057149 185.779834,310.535983 L228.85602,296.316818 Z M278.847196,373.782656 L285.724545,341.063462 C274.120699,339.94601 272.308606,337.424996 272.308606,322.147761 L272.308606,251.624158 C272.308606,214.526929 254.20381,197.813741 214.020519,197.813741 C168.374064,197.813741 142.327248,214.899412 142.327248,244.703516 C142.327248,249.432441 142.66063,251.257072 144.488854,256.347685 L185.779834,247.262318 C185.043167,245.081399 184.688276,244.341829 184.688276,242.878886 C184.688276,234.522292 195.189811,227.612447 208.218596,227.612447 C222.349693,227.612447 228.85602,235.990634 228.85602,254.166765 L228.85602,268.342743 L181.058714,282.157035 C156.426082,289.433965 146.284815,297.412676 140.504401,313.056997 C138.676177,318.509296 137.595374,324.328681 137.595374,330.148066 C137.595374,357.058673 157.867153,375.958178 186.489615,375.958178 C203.513608,375.958178 217.623196,369.777106 233.566386,355.23944 C241.175024,370.122598 248.068505,373.782656 269.781355,373.782656 L278.847196,373.782656 Z" id="Fill-1" fill="#FFFFFF" mask="url(#mask-5)"></path>
                    <path d="M495.313771,189.325969 C494.792189,189.083045 493.969489,188.948087 492.630583,188.948087 L490.022675,188.948087 L490.022675,194.362598 L492.630583,194.362598 C495.141703,194.362598 496.335426,193.434088 496.335426,191.431312 C496.335426,190.497403 495.926764,189.639071 495.313771,189.325969 L495.313771,189.325969 Z M496.722579,203.053887 L491.73798,196.327585 L490.022675,196.327585 L490.022675,203.053887 L487.199682,203.053887 L487.199682,186.772565 L493.044622,186.772565 C497.271046,186.772565 499.120779,188.154534 499.120779,191.361134 C499.120779,194.049496 497.50764,195.841737 494.759927,196.117051 L500.190828,203.053887 L496.722579,203.053887 Z M493.114525,182.945159 C486.516787,182.945159 481.193428,188.29489 481.193428,194.875438 C481.193428,201.499172 486.516787,206.843505 493.114525,206.843505 C499.674623,206.843505 504.997982,201.499172 504.997982,194.875438 C504.997982,188.29489 499.674623,182.945159 493.114525,182.945159 L493.114525,182.945159 Z M493.114525,209.046018 C485.317687,209.046018 478.999559,202.708395 478.999559,194.875438 C478.999559,187.085668 485.317687,180.737248 493.114525,180.737248 C500.873723,180.737248 507.191851,187.085668 507.191851,194.875438 C507.191851,202.708395 500.873723,209.046018 493.114525,209.046018 L493.114525,209.046018 Z" id="Fill-3" fill="#FFFFFF" mask="url(#mask-5)"></path>
                </g>
            </g>
        </g>
    </g>
</svg>